<?xml version="1.0" encoding="utf-8"?>
<!-- Generator: Adobe Illustrator 16.0.0, SVG Export Plug-In . SVG Version: 6.00 Build 0)  -->
<!DOCTYPE svg PUBLIC "-//W3C//DTD SVG 1.1//EN" "http://www.w3.org/Graphics/SVG/1.1/DTD/svg11.dtd">
<svg version="1.1" id="Layer_1" xmlns="http://www.w3.org/2000/svg" xmlns:xlink="http://www.w3.org/1999/xlink" x="0px" y="0px"
	 width="13px" height="13px" viewBox="0 0 13 13" enable-background="new 0 0 13 13" xml:space="preserve">
<g id="calendar_1_">
	<path fill="#FFFFFF" d="M11.917,1.219h-1.76V0.406C10.156,0.182,9.974,0,9.75,0S9.344,0.182,9.344,0.406v0.812H6.906V0.406
		C6.906,0.182,6.724,0,6.5,0S6.094,0.182,6.094,0.406v0.812H3.656V0.406C3.656,0.182,3.474,0,3.25,0S2.844,0.182,2.844,0.406v0.812
		h-1.76C0.485,1.219,0,1.704,0,2.302v9.615C0,12.515,0.485,13,1.083,13h10.833C12.515,13,13,12.515,13,11.917V2.302
		C13,1.704,12.515,1.219,11.917,1.219z M12.188,11.917c0,0.149-0.122,0.271-0.271,0.271H1.083c-0.149,0-0.271-0.121-0.271-0.271
		V2.302c0-0.149,0.122-0.271,0.271-0.271h1.76v0.812c0,0.225,0.182,0.406,0.406,0.406s0.406-0.182,0.406-0.406V2.031h2.438v0.812
		c0,0.225,0.182,0.406,0.406,0.406s0.406-0.182,0.406-0.406V2.031h2.438v0.812c0,0.225,0.182,0.406,0.406,0.406
		s0.406-0.182,0.406-0.406V2.031h1.76c0.149,0,0.271,0.121,0.271,0.271V11.917z"/>
	<rect x="2.844" y="4.875" fill="#FFFFFF" width="1.625" height="1.219"/>
	<rect x="2.844" y="6.906" fill="#FFFFFF" width="1.625" height="1.219"/>
	<rect x="2.844" y="8.938" fill="#FFFFFF" width="1.625" height="1.219"/>
	<rect x="5.688" y="8.938" fill="#FFFFFF" width="1.625" height="1.219"/>
	<rect x="5.688" y="6.906" fill="#FFFFFF" width="1.625" height="1.219"/>
	<rect x="5.688" y="4.875" fill="#FFFFFF" width="1.625" height="1.219"/>
	<rect x="8.531" y="8.938" fill="#FFFFFF" width="1.625" height="1.219"/>
	<rect x="8.531" y="6.906" fill="#FFFFFF" width="1.625" height="1.219"/>
	<rect x="8.531" y="4.875" fill="#FFFFFF" width="1.625" height="1.219"/>
</g>
</svg>
