<?xml version="1.0" encoding="utf-8"?>
<!-- Generator: Adobe Illustrator 16.0.0, SVG Export Plug-In . SVG Version: 6.00 Build 0)  -->
<!DOCTYPE svg PUBLIC "-//W3C//DTD SVG 1.1//EN" "http://www.w3.org/Graphics/SVG/1.1/DTD/svg11.dtd">
<svg version="1.1" id="Layer_1" xmlns="http://www.w3.org/2000/svg" xmlns:xlink="http://www.w3.org/1999/xlink" x="0px" y="0px"
	 width="13.093px" height="13px" viewBox="0 0 13.093 13" enable-background="new 0 0 13.093 13" xml:space="preserve">
<g id="like_1_">
	<path fill-rule="evenodd" clip-rule="evenodd" fill="#FFFFFF" d="M11.941,4.254c-0.508-0.133-1.702-0.132-3.448-0.178
		c0.083-0.381,0.102-0.725,0.102-1.335C8.594,1.284,7.533,0,6.593,0C5.93,0,5.383,0.542,5.375,1.209
		C5.365,2.027,5.113,3.44,3.75,4.158c-0.1,0.052-0.386,0.192-0.428,0.211l0.021,0.019C3.13,4.203,2.834,4.062,2.531,4.062H1.312
		c-0.672,0-1.219,0.547-1.219,1.219v6.5C0.093,12.453,0.64,13,1.312,13h1.219c0.483,0,0.888-0.292,1.084-0.701
		c0.005,0.001,0.013,0.004,0.019,0.005c0.027,0.007,0.058,0.015,0.097,0.025c0.007,0.001,0.011,0.002,0.019,0.005
		c0.234,0.058,0.685,0.164,1.647,0.387C5.604,12.768,6.693,13,7.824,13h2.22c0.677,0,1.165-0.26,1.455-0.783
		c0.004-0.008,0.098-0.19,0.174-0.438c0.057-0.186,0.079-0.449,0.01-0.715c0.436-0.3,0.576-0.753,0.668-1.048
		c0.153-0.484,0.106-0.848,0-1.107c0.245-0.231,0.455-0.585,0.543-1.124c0.055-0.334-0.004-0.678-0.158-0.964
		c0.23-0.258,0.334-0.583,0.347-0.884l0.005-0.085c0.003-0.053,0.005-0.086,0.005-0.203C13.093,5.135,12.738,4.481,11.941,4.254z
		 M2.937,11.781c0,0.225-0.182,0.406-0.406,0.406H1.312c-0.225,0-0.406-0.182-0.406-0.406v-6.5c0-0.225,0.182-0.406,0.406-0.406
		h1.219c0.225,0,0.406,0.182,0.406,0.406V11.781z M12.271,5.905c-0.008,0.2-0.092,0.595-0.803,0.595c-0.609,0-0.812,0-0.812,0
		c-0.112,0-0.203,0.091-0.203,0.203s0.091,0.203,0.203,0.203c0,0,0.178,0,0.787,0s0.689,0.506,0.65,0.749
		c-0.05,0.303-0.192,0.876-0.878,0.876s-0.965,0-0.965,0c-0.112,0-0.203,0.091-0.203,0.203s0.091,0.203,0.203,0.203
		c0,0,0.482,0,0.8,0c0.686,0,0.625,0.522,0.527,0.835c-0.129,0.41-0.208,0.79-1.072,0.79c-0.292,0-0.663,0-0.663,0
		c-0.112,0-0.203,0.091-0.203,0.203s0.091,0.203,0.203,0.203c0,0,0.282,0,0.637,0c0.444,0,0.465,0.421,0.419,0.571
		c-0.051,0.165-0.111,0.287-0.113,0.293c-0.123,0.222-0.321,0.354-0.74,0.354h-2.22c-1.116,0-2.223-0.253-2.251-0.26
		c-1.688-0.389-1.776-0.42-1.882-0.449c0,0-0.344-0.058-0.344-0.357L3.343,5.51c0-0.19,0.122-0.361,0.323-0.423
		c0.025-0.01,0.059-0.021,0.083-0.03C5.605,4.288,6.17,2.603,6.187,1.219c0.002-0.194,0.152-0.406,0.406-0.406
		c0.43,0,1.188,0.862,1.188,1.929c0,0.964-0.039,1.13-0.376,2.134c4.062,0,4.034,0.059,4.393,0.152
		c0.444,0.127,0.482,0.495,0.482,0.622C12.281,5.789,12.277,5.769,12.271,5.905z"/>
	<path fill-rule="evenodd" clip-rule="evenodd" fill="#FFFFFF" d="M1.921,10.562c-0.336,0-0.609,0.273-0.609,0.609
		s0.273,0.609,0.609,0.609s0.609-0.273,0.609-0.609S2.258,10.562,1.921,10.562z M1.921,11.375c-0.112,0-0.203-0.091-0.203-0.203
		s0.091-0.203,0.203-0.203s0.203,0.091,0.203,0.203S2.033,11.375,1.921,11.375z"/>
</g>
</svg>
