<?xml version="1.0" encoding="utf-8"?>
<!-- Generator: Adobe Illustrator 16.0.0, SVG Export Plug-In . SVG Version: 6.00 Build 0)  -->
<!DOCTYPE svg PUBLIC "-//W3C//DTD SVG 1.1//EN" "http://www.w3.org/Graphics/SVG/1.1/DTD/svg11.dtd">
<svg version="1.1" id="Layer_1" xmlns="http://www.w3.org/2000/svg" xmlns:xlink="http://www.w3.org/1999/xlink" x="0px" y="0px"
	 width="16px" height="12px" viewBox="0 0 16 12" enable-background="new 0 0 16 12" xml:space="preserve">
<g id="tag_2_">
	<path fill-rule="evenodd" clip-rule="evenodd" fill="#FFFFFF" d="M15.696,4.941l-2.5-4C12.831,0.355,12.189,0,11.5,0H2
		C0.896,0,0,0.896,0,2v8c0,1.104,0.896,2,2,2h9.5c0.689,0,1.331-0.354,1.696-0.938l2.5-4C16.102,6.412,16.102,5.589,15.696,4.941z
		 M14.849,6.531l-2.501,4C12.164,10.824,11.847,11,11.5,11H2c-0.551,0-1-0.448-1-1V2c0-0.551,0.449-1,1-1h9.5
		c0.347,0,0.664,0.177,0.848,0.47l2.5,4C15.049,5.792,15.049,6.208,14.849,6.531z"/>
	<path fill-rule="evenodd" clip-rule="evenodd" fill="#FFFFFF" d="M11.5,4.5C10.671,4.5,10,5.172,10,6c0,0.829,0.671,1.5,1.5,1.5
		S13,6.829,13,6C13,5.172,12.329,4.5,11.5,4.5z M11.5,7c-0.552,0-1-0.447-1-1c0-0.552,0.448-1,1-1s1,0.448,1,1
		C12.5,6.553,12.052,7,11.5,7z"/>
</g>
</svg>
